<?xml version="1.0" standalone="no"?>
<!DOCTYPE svg PUBLIC "-//W3C//DTD SVG 20010904//EN"
 "http://www.w3.org/TR/2001/REC-SVG-20010904/DTD/svg10.dtd">
<svg version="1.0" xmlns="http://www.w3.org/2000/svg"
 width="572.000000pt" height="572.000000pt" viewBox="0 0 572.000000 572.000000"
 preserveAspectRatio="xMidYMid meet">
<metadata>
Created by potrace 1.11, written by Peter Selinger 2001-2013
</metadata>
<g transform="translate(0.000000,572.000000) scale(0.100000,-0.100000)"
fill="#000000" stroke="none">
<path d="M1590 5091 l-1265 -609 -3 -1629 -2 -1629 1264 -608 c695 -334 1271
-606 1279 -604 9 1 581 275 1271 607 l1256 604 -2 1630 -3 1630 -1264 609
c-696 334 -1265 608 -1265 608 -1 0 -570 -274 -1266 -609z m1526 -1443 l239
-668 787 -2 787 -3 -396 -637 -397 -638 -1326 0 -1326 0 -397 638 -396 637
846 5 846 5 241 672 c132 370 244 669 247 665 3 -4 114 -307 245 -674z"/>
</g>
</svg>
